<svg width="24" height="24" viewBox="0 0 24 24" fill="none" xmlns="http://www.w3.org/2000/svg">
  <path
    d="M13.5 5.5C13.5 6.88 12.38 8 11 8S8.5 6.88 8.5 5.5 9.62 3 11 3 13.5 4.12 13.5 5.5M9.89 19.38L10.89 15L13 17V21H15V15.5L12.89 13.39C12.64 13.14 12.31 13 11.97 13S11.3 13.14 11.05 13.39L9.04 15.4L6.5 9H4.5L7.54 16.38L9.89 19.38M19 12C19.83 12 20.5 12.67 20.5 13.5S19.83 15 19 15 17.5 14.33 17.5 13.5 18.17 12 19 12M19 10C16.79 10 15 11.79 15 14S16.79 18 19 18 23 16.21 23 14 21.21 10 19 10Z"
    fill="currentColor" />
</svg>
